<mxfile host="app.diagrams.net" agent="Mozilla/5.0 (Macintosh; Intel Mac OS X 10_15_7) AppleWebKit/537.36 (KHTML, like Gecko) Chrome/135.0.0.0 Safari/537.36" version="26.3.0">
  <diagram name="Page-1" id="7aHIsYiu3uwxNcpmQEqn">
    <mxGraphModel dx="3486" dy="1689" grid="1" gridSize="10" guides="1" tooltips="1" connect="1" arrows="1" fold="1" page="1" pageScale="1" pageWidth="850" pageHeight="1100" math="0" shadow="0">
      <root>
        <mxCell id="0" />
        <mxCell id="1" parent="0" />
        <mxCell id="-_GSLbsh_vdFSHuwJChW-332" value="" style="rounded=1;whiteSpace=wrap;html=1;fillColor=#fff2cc;strokeColor=#d6b656;" vertex="1" parent="1">
          <mxGeometry x="-560" y="2210" width="480" height="620" as="geometry" />
        </mxCell>
        <mxCell id="-_GSLbsh_vdFSHuwJChW-118" value="" style="rounded=1;whiteSpace=wrap;html=1;fillColor=#fff2cc;strokeColor=#d6b656;" vertex="1" parent="1">
          <mxGeometry x="-560" y="610" width="480" height="620" as="geometry" />
        </mxCell>
        <mxCell id="-_GSLbsh_vdFSHuwJChW-2" value="&lt;div&gt;Card 0&lt;/div&gt;DPC&amp;amp;SPM" style="ellipse;whiteSpace=wrap;html=1;fillColor=#e1d5e7;strokeColor=#9673a6;" vertex="1" parent="1">
          <mxGeometry x="-480" y="680" width="160" height="80" as="geometry" />
        </mxCell>
        <mxCell id="-_GSLbsh_vdFSHuwJChW-5" value="" style="curved=1;endArrow=classic;html=1;rounded=0;exitX=-0.007;exitY=0.627;exitDx=0;exitDy=0;entryX=0;entryY=0.5;entryDx=0;entryDy=0;exitPerimeter=0;" edge="1" parent="1" source="-_GSLbsh_vdFSHuwJChW-20" target="-_GSLbsh_vdFSHuwJChW-48">
          <mxGeometry width="50" height="50" relative="1" as="geometry">
            <mxPoint x="130" y="900" as="sourcePoint" />
            <mxPoint x="370" y="960" as="targetPoint" />
            <Array as="points">
              <mxPoint x="-610" y="1380" />
            </Array>
          </mxGeometry>
        </mxCell>
        <mxCell id="-_GSLbsh_vdFSHuwJChW-92" value="Write Data[1-7] to Card 1~Card 7" style="edgeLabel;html=1;align=center;verticalAlign=middle;resizable=0;points=[];" vertex="1" connectable="0" parent="-_GSLbsh_vdFSHuwJChW-5">
          <mxGeometry x="0.7535" y="2" relative="1" as="geometry">
            <mxPoint as="offset" />
          </mxGeometry>
        </mxCell>
        <mxCell id="-_GSLbsh_vdFSHuwJChW-20" value="TDMA" style="rounded=0;whiteSpace=wrap;html=1;fillColor=#cdeb8b;strokeColor=#36393d;" vertex="1" parent="1">
          <mxGeometry x="-180" y="710" width="40" height="20" as="geometry" />
        </mxCell>
        <mxCell id="-_GSLbsh_vdFSHuwJChW-21" value="" style="endArrow=classic;html=1;rounded=0;exitX=1;exitY=0.5;exitDx=0;exitDy=0;entryX=0;entryY=0.5;entryDx=0;entryDy=0;" edge="1" parent="1" source="-_GSLbsh_vdFSHuwJChW-2" target="-_GSLbsh_vdFSHuwJChW-20">
          <mxGeometry width="50" height="50" relative="1" as="geometry">
            <mxPoint x="-360" y="990" as="sourcePoint" />
            <mxPoint x="-310" y="940" as="targetPoint" />
          </mxGeometry>
        </mxCell>
        <mxCell id="-_GSLbsh_vdFSHuwJChW-22" value="Trigg&lt;span style=&quot;background-color: light-dark(#ffffff, var(--ge-dark-color, #121212)); color: light-dark(rgb(0, 0, 0), rgb(255, 255, 255));&quot;&gt;er TDMA&amp;nbsp;&lt;/span&gt;&lt;div&gt;&lt;span style=&quot;background-color: light-dark(#ffffff, var(--ge-dark-color, #121212)); color: light-dark(rgb(0, 0, 0), rgb(255, 255, 255));&quot;&gt;write data to Card 1&lt;/span&gt;&lt;/div&gt;" style="edgeLabel;html=1;align=center;verticalAlign=middle;resizable=0;points=[];" vertex="1" connectable="0" parent="-_GSLbsh_vdFSHuwJChW-21">
          <mxGeometry x="-0.2277" relative="1" as="geometry">
            <mxPoint as="offset" />
          </mxGeometry>
        </mxCell>
        <mxCell id="-_GSLbsh_vdFSHuwJChW-48" value="LINK" style="rounded=0;whiteSpace=wrap;html=1;fillColor=#cdeb8b;strokeColor=#36393d;" vertex="1" parent="1">
          <mxGeometry x="-180" y="870" width="40" height="20" as="geometry" />
        </mxCell>
        <mxCell id="-_GSLbsh_vdFSHuwJChW-49" value="" style="rounded=0;whiteSpace=wrap;html=1;" vertex="1" parent="1">
          <mxGeometry x="-440" y="1020" width="40" height="160" as="geometry" />
        </mxCell>
        <mxCell id="-_GSLbsh_vdFSHuwJChW-50" value="data[0]" style="rounded=1;whiteSpace=wrap;html=1;fillColor=#dae8fc;strokeColor=#6c8ebf;" vertex="1" parent="1">
          <mxGeometry x="-440" y="1020" width="40" height="20" as="geometry" />
        </mxCell>
        <mxCell id="-_GSLbsh_vdFSHuwJChW-51" value="data[1]" style="rounded=1;whiteSpace=wrap;html=1;fillColor=#dae8fc;strokeColor=#6c8ebf;" vertex="1" parent="1">
          <mxGeometry x="-440" y="1040" width="40" height="20" as="geometry" />
        </mxCell>
        <mxCell id="-_GSLbsh_vdFSHuwJChW-52" value="data[2]" style="rounded=1;whiteSpace=wrap;html=1;fillColor=#dae8fc;strokeColor=#6c8ebf;" vertex="1" parent="1">
          <mxGeometry x="-440" y="1060" width="40" height="20" as="geometry" />
        </mxCell>
        <mxCell id="-_GSLbsh_vdFSHuwJChW-53" value="data[3]" style="rounded=1;whiteSpace=wrap;html=1;fillColor=#dae8fc;strokeColor=#6c8ebf;" vertex="1" parent="1">
          <mxGeometry x="-440" y="1080" width="40" height="20" as="geometry" />
        </mxCell>
        <mxCell id="-_GSLbsh_vdFSHuwJChW-55" value="data[4]" style="rounded=1;whiteSpace=wrap;html=1;fillColor=#dae8fc;strokeColor=#6c8ebf;" vertex="1" parent="1">
          <mxGeometry x="-440" y="1100" width="40" height="20" as="geometry" />
        </mxCell>
        <mxCell id="-_GSLbsh_vdFSHuwJChW-56" value="data[5]" style="rounded=1;whiteSpace=wrap;html=1;fillColor=#dae8fc;strokeColor=#6c8ebf;" vertex="1" parent="1">
          <mxGeometry x="-440" y="1120" width="40" height="20" as="geometry" />
        </mxCell>
        <mxCell id="-_GSLbsh_vdFSHuwJChW-57" value="data[6]" style="rounded=1;whiteSpace=wrap;html=1;fillColor=#dae8fc;strokeColor=#6c8ebf;" vertex="1" parent="1">
          <mxGeometry x="-440" y="1140" width="40" height="20" as="geometry" />
        </mxCell>
        <mxCell id="-_GSLbsh_vdFSHuwJChW-58" value="data[7]" style="rounded=1;whiteSpace=wrap;html=1;fillColor=#dae8fc;strokeColor=#6c8ebf;" vertex="1" parent="1">
          <mxGeometry x="-440" y="1160" width="40" height="20" as="geometry" />
        </mxCell>
        <mxCell id="-_GSLbsh_vdFSHuwJChW-83" value="" style="rounded=0;whiteSpace=wrap;html=1;" vertex="1" parent="1">
          <mxGeometry x="-440" y="800" width="40" height="160" as="geometry" />
        </mxCell>
        <mxCell id="-_GSLbsh_vdFSHuwJChW-84" value="data[0]" style="rounded=1;whiteSpace=wrap;html=1;fillColor=#fff2cc;strokeColor=#d6b656;gradientColor=#ffd966;" vertex="1" parent="1">
          <mxGeometry x="-440" y="800" width="40" height="20" as="geometry" />
        </mxCell>
        <mxCell id="-_GSLbsh_vdFSHuwJChW-93" value="" style="endArrow=classic;html=1;rounded=0;entryX=1;entryY=0.5;entryDx=0;entryDy=0;exitX=0;exitY=0.5;exitDx=0;exitDy=0;" edge="1" parent="1" source="-_GSLbsh_vdFSHuwJChW-48">
          <mxGeometry width="50" height="50" relative="1" as="geometry">
            <mxPoint x="-180" y="980" as="sourcePoint" />
            <mxPoint x="-400" y="870" as="targetPoint" />
          </mxGeometry>
        </mxCell>
        <mxCell id="-_GSLbsh_vdFSHuwJChW-103" value="Recv Data[0]&amp;nbsp;&lt;div&gt;From other Cards&lt;/div&gt;" style="edgeLabel;html=1;align=center;verticalAlign=middle;resizable=0;points=[];" vertex="1" connectable="0" parent="-_GSLbsh_vdFSHuwJChW-93">
          <mxGeometry x="0.4807" y="-2" relative="1" as="geometry">
            <mxPoint as="offset" />
          </mxGeometry>
        </mxCell>
        <mxCell id="-_GSLbsh_vdFSHuwJChW-94" value="data[0]" style="rounded=1;whiteSpace=wrap;html=1;fillColor=#dae8fc;strokeColor=#6c8ebf;" vertex="1" parent="1">
          <mxGeometry x="-440" y="820" width="40" height="20" as="geometry" />
        </mxCell>
        <mxCell id="-_GSLbsh_vdFSHuwJChW-95" value="data[0]" style="rounded=1;whiteSpace=wrap;html=1;fillColor=#dae8fc;strokeColor=#6c8ebf;" vertex="1" parent="1">
          <mxGeometry x="-440" y="840" width="40" height="20" as="geometry" />
        </mxCell>
        <mxCell id="-_GSLbsh_vdFSHuwJChW-96" value="data[0]" style="rounded=1;whiteSpace=wrap;html=1;fillColor=#dae8fc;strokeColor=#6c8ebf;" vertex="1" parent="1">
          <mxGeometry x="-440" y="860" width="40" height="20" as="geometry" />
        </mxCell>
        <mxCell id="-_GSLbsh_vdFSHuwJChW-99" value="data[0]" style="rounded=1;whiteSpace=wrap;html=1;fillColor=#dae8fc;strokeColor=#6c8ebf;" vertex="1" parent="1">
          <mxGeometry x="-440" y="880" width="40" height="20" as="geometry" />
        </mxCell>
        <mxCell id="-_GSLbsh_vdFSHuwJChW-100" value="data[0]" style="rounded=1;whiteSpace=wrap;html=1;fillColor=#dae8fc;strokeColor=#6c8ebf;" vertex="1" parent="1">
          <mxGeometry x="-440" y="900" width="40" height="20" as="geometry" />
        </mxCell>
        <mxCell id="-_GSLbsh_vdFSHuwJChW-101" value="data[0]" style="rounded=1;whiteSpace=wrap;html=1;fillColor=#dae8fc;strokeColor=#6c8ebf;" vertex="1" parent="1">
          <mxGeometry x="-440" y="920" width="40" height="20" as="geometry" />
        </mxCell>
        <mxCell id="-_GSLbsh_vdFSHuwJChW-102" value="data[0]" style="rounded=1;whiteSpace=wrap;html=1;fillColor=#dae8fc;strokeColor=#6c8ebf;" vertex="1" parent="1">
          <mxGeometry x="-440" y="940" width="40" height="20" as="geometry" />
        </mxCell>
        <mxCell id="-_GSLbsh_vdFSHuwJChW-104" value="" style="curved=1;endArrow=classic;html=1;rounded=0;entryX=0;entryY=0.5;entryDx=0;entryDy=0;exitX=0;exitY=0.5;exitDx=0;exitDy=0;" edge="1" parent="1" source="-_GSLbsh_vdFSHuwJChW-50" target="-_GSLbsh_vdFSHuwJChW-84">
          <mxGeometry width="50" height="50" relative="1" as="geometry">
            <mxPoint x="-340" y="930" as="sourcePoint" />
            <mxPoint x="-290" y="880" as="targetPoint" />
            <Array as="points">
              <mxPoint x="-560" y="910" />
            </Array>
          </mxGeometry>
        </mxCell>
        <mxCell id="-_GSLbsh_vdFSHuwJChW-105" value="DME Get&lt;div&gt;Data[0]&lt;/div&gt;&lt;div&gt;From&lt;/div&gt;&lt;div&gt;Local Memory&lt;/div&gt;" style="edgeLabel;html=1;align=center;verticalAlign=middle;resizable=0;points=[];" vertex="1" connectable="0" parent="-_GSLbsh_vdFSHuwJChW-104">
          <mxGeometry x="0.4137" y="-22" relative="1" as="geometry">
            <mxPoint as="offset" />
          </mxGeometry>
        </mxCell>
        <mxCell id="-_GSLbsh_vdFSHuwJChW-106" value="Card 1" style="rounded=0;whiteSpace=wrap;html=1;fillColor=#fff2cc;strokeColor=#d6b656;" vertex="1" parent="1">
          <mxGeometry x="80" y="600" width="40" height="80" as="geometry" />
        </mxCell>
        <mxCell id="-_GSLbsh_vdFSHuwJChW-108" value="Card 2" style="rounded=0;whiteSpace=wrap;html=1;fillColor=#fff2cc;strokeColor=#d6b656;" vertex="1" parent="1">
          <mxGeometry x="80" y="680" width="40" height="80" as="geometry" />
        </mxCell>
        <mxCell id="-_GSLbsh_vdFSHuwJChW-109" value="Card 3" style="rounded=0;whiteSpace=wrap;html=1;fillColor=#fff2cc;strokeColor=#d6b656;" vertex="1" parent="1">
          <mxGeometry x="80" y="760" width="40" height="80" as="geometry" />
        </mxCell>
        <mxCell id="-_GSLbsh_vdFSHuwJChW-110" value="Card 4" style="rounded=0;whiteSpace=wrap;html=1;fillColor=#fff2cc;strokeColor=#d6b656;" vertex="1" parent="1">
          <mxGeometry x="80" y="840" width="40" height="80" as="geometry" />
        </mxCell>
        <mxCell id="-_GSLbsh_vdFSHuwJChW-111" value="Card 5" style="rounded=0;whiteSpace=wrap;html=1;fillColor=#fff2cc;strokeColor=#d6b656;" vertex="1" parent="1">
          <mxGeometry x="80" y="920" width="40" height="80" as="geometry" />
        </mxCell>
        <mxCell id="-_GSLbsh_vdFSHuwJChW-112" value="Card 6" style="rounded=0;whiteSpace=wrap;html=1;fillColor=#fff2cc;strokeColor=#d6b656;" vertex="1" parent="1">
          <mxGeometry x="80" y="1000" width="40" height="80" as="geometry" />
        </mxCell>
        <mxCell id="-_GSLbsh_vdFSHuwJChW-113" value="Card 7" style="rounded=0;whiteSpace=wrap;html=1;fillColor=#fff2cc;strokeColor=#d6b656;" vertex="1" parent="1">
          <mxGeometry x="80" y="1080" width="40" height="80" as="geometry" />
        </mxCell>
        <mxCell id="-_GSLbsh_vdFSHuwJChW-116" value="" style="shape=flexArrow;endArrow=classic;startArrow=classic;html=1;rounded=0;entryX=0;entryY=0.5;entryDx=0;entryDy=0;exitX=1;exitY=0.5;exitDx=0;exitDy=0;fillColor=#d5e8d4;strokeColor=#82b366;" edge="1" parent="1" source="-_GSLbsh_vdFSHuwJChW-48" target="-_GSLbsh_vdFSHuwJChW-110">
          <mxGeometry width="100" height="100" relative="1" as="geometry">
            <mxPoint x="-110" y="910" as="sourcePoint" />
            <mxPoint x="-10" y="810" as="targetPoint" />
          </mxGeometry>
        </mxCell>
        <mxCell id="-_GSLbsh_vdFSHuwJChW-117" value="Send data[n] to Card n&lt;div&gt;Recve data[0] From others&lt;/div&gt;" style="edgeLabel;html=1;align=center;verticalAlign=middle;resizable=0;points=[];" vertex="1" connectable="0" parent="-_GSLbsh_vdFSHuwJChW-116">
          <mxGeometry y="2" relative="1" as="geometry">
            <mxPoint as="offset" />
          </mxGeometry>
        </mxCell>
        <mxCell id="-_GSLbsh_vdFSHuwJChW-119" value="Card 0" style="text;html=1;align=center;verticalAlign=middle;whiteSpace=wrap;rounded=0;" vertex="1" parent="1">
          <mxGeometry x="-510" y="630" width="60" height="30" as="geometry" />
        </mxCell>
        <mxCell id="-_GSLbsh_vdFSHuwJChW-120" value="Card 1" style="rounded=0;whiteSpace=wrap;html=1;fillColor=#fff2cc;strokeColor=#d6b656;" vertex="1" parent="1">
          <mxGeometry x="440" y="640" width="40" height="80" as="geometry" />
        </mxCell>
        <mxCell id="-_GSLbsh_vdFSHuwJChW-121" value="Card 2" style="rounded=0;whiteSpace=wrap;html=1;fillColor=#fff2cc;strokeColor=#d6b656;" vertex="1" parent="1">
          <mxGeometry x="600" y="640" width="40" height="80" as="geometry" />
        </mxCell>
        <mxCell id="-_GSLbsh_vdFSHuwJChW-122" value="Card 3" style="rounded=0;whiteSpace=wrap;html=1;fillColor=#fff2cc;strokeColor=#d6b656;" vertex="1" parent="1">
          <mxGeometry x="720" y="800" width="40" height="80" as="geometry" />
        </mxCell>
        <mxCell id="-_GSLbsh_vdFSHuwJChW-123" value="Card 4" style="rounded=0;whiteSpace=wrap;html=1;fillColor=#fff2cc;strokeColor=#d6b656;" vertex="1" parent="1">
          <mxGeometry x="720" y="960" width="40" height="80" as="geometry" />
        </mxCell>
        <mxCell id="-_GSLbsh_vdFSHuwJChW-124" value="Card 5" style="rounded=0;whiteSpace=wrap;html=1;fillColor=#fff2cc;strokeColor=#d6b656;" vertex="1" parent="1">
          <mxGeometry x="600" y="1120" width="40" height="80" as="geometry" />
        </mxCell>
        <mxCell id="-_GSLbsh_vdFSHuwJChW-125" value="Card 6" style="rounded=0;whiteSpace=wrap;html=1;fillColor=#fff2cc;strokeColor=#d6b656;" vertex="1" parent="1">
          <mxGeometry x="440" y="1120" width="40" height="80" as="geometry" />
        </mxCell>
        <mxCell id="-_GSLbsh_vdFSHuwJChW-126" value="Card 7" style="rounded=0;whiteSpace=wrap;html=1;fillColor=#fff2cc;strokeColor=#d6b656;" vertex="1" parent="1">
          <mxGeometry x="320" y="960" width="40" height="80" as="geometry" />
        </mxCell>
        <mxCell id="-_GSLbsh_vdFSHuwJChW-127" value="Card 0" style="rounded=0;whiteSpace=wrap;html=1;fillColor=#fff2cc;strokeColor=#d6b656;" vertex="1" parent="1">
          <mxGeometry x="320" y="800" width="40" height="80" as="geometry" />
        </mxCell>
        <mxCell id="-_GSLbsh_vdFSHuwJChW-128" value="" style="endArrow=classic;startArrow=classic;html=1;rounded=0;entryX=0.5;entryY=1;entryDx=0;entryDy=0;exitX=0.5;exitY=0;exitDx=0;exitDy=0;" edge="1" parent="1" source="-_GSLbsh_vdFSHuwJChW-126" target="-_GSLbsh_vdFSHuwJChW-127">
          <mxGeometry width="50" height="50" relative="1" as="geometry">
            <mxPoint x="160" y="970" as="sourcePoint" />
            <mxPoint x="210" y="920" as="targetPoint" />
          </mxGeometry>
        </mxCell>
        <mxCell id="-_GSLbsh_vdFSHuwJChW-129" value="" style="endArrow=classic;startArrow=classic;html=1;rounded=0;entryX=1;entryY=0.5;entryDx=0;entryDy=0;exitX=0.5;exitY=0;exitDx=0;exitDy=0;" edge="1" parent="1" source="-_GSLbsh_vdFSHuwJChW-125" target="-_GSLbsh_vdFSHuwJChW-127">
          <mxGeometry width="50" height="50" relative="1" as="geometry">
            <mxPoint x="350" y="970" as="sourcePoint" />
            <mxPoint x="350" y="890" as="targetPoint" />
          </mxGeometry>
        </mxCell>
        <mxCell id="-_GSLbsh_vdFSHuwJChW-130" value="" style="endArrow=classic;startArrow=classic;html=1;rounded=0;entryX=1;entryY=0.5;entryDx=0;entryDy=0;exitX=0.5;exitY=0;exitDx=0;exitDy=0;" edge="1" parent="1" source="-_GSLbsh_vdFSHuwJChW-124" target="-_GSLbsh_vdFSHuwJChW-127">
          <mxGeometry width="50" height="50" relative="1" as="geometry">
            <mxPoint x="470" y="1130" as="sourcePoint" />
            <mxPoint x="370" y="850" as="targetPoint" />
          </mxGeometry>
        </mxCell>
        <mxCell id="-_GSLbsh_vdFSHuwJChW-131" value="" style="endArrow=classic;startArrow=classic;html=1;rounded=0;entryX=1;entryY=0.5;entryDx=0;entryDy=0;exitX=0;exitY=0.5;exitDx=0;exitDy=0;" edge="1" parent="1" source="-_GSLbsh_vdFSHuwJChW-123" target="-_GSLbsh_vdFSHuwJChW-127">
          <mxGeometry width="50" height="50" relative="1" as="geometry">
            <mxPoint x="630" y="1130" as="sourcePoint" />
            <mxPoint x="370" y="850" as="targetPoint" />
          </mxGeometry>
        </mxCell>
        <mxCell id="-_GSLbsh_vdFSHuwJChW-132" value="" style="endArrow=classic;startArrow=classic;html=1;rounded=0;entryX=1;entryY=0.5;entryDx=0;entryDy=0;" edge="1" parent="1" source="-_GSLbsh_vdFSHuwJChW-122" target="-_GSLbsh_vdFSHuwJChW-127">
          <mxGeometry width="50" height="50" relative="1" as="geometry">
            <mxPoint x="730" y="1010" as="sourcePoint" />
            <mxPoint x="370" y="850" as="targetPoint" />
          </mxGeometry>
        </mxCell>
        <mxCell id="-_GSLbsh_vdFSHuwJChW-133" value="" style="endArrow=classic;startArrow=classic;html=1;rounded=0;entryX=1;entryY=0.5;entryDx=0;entryDy=0;exitX=0.5;exitY=1;exitDx=0;exitDy=0;" edge="1" parent="1" source="-_GSLbsh_vdFSHuwJChW-121" target="-_GSLbsh_vdFSHuwJChW-127">
          <mxGeometry width="50" height="50" relative="1" as="geometry">
            <mxPoint x="730" y="850" as="sourcePoint" />
            <mxPoint x="370" y="850" as="targetPoint" />
          </mxGeometry>
        </mxCell>
        <mxCell id="-_GSLbsh_vdFSHuwJChW-134" value="" style="endArrow=classic;startArrow=classic;html=1;rounded=0;entryX=0.5;entryY=0;entryDx=0;entryDy=0;exitX=0;exitY=0.5;exitDx=0;exitDy=0;" edge="1" parent="1" source="-_GSLbsh_vdFSHuwJChW-120" target="-_GSLbsh_vdFSHuwJChW-127">
          <mxGeometry width="50" height="50" relative="1" as="geometry">
            <mxPoint x="610" y="730" as="sourcePoint" />
            <mxPoint x="370" y="850" as="targetPoint" />
          </mxGeometry>
        </mxCell>
        <mxCell id="-_GSLbsh_vdFSHuwJChW-135" value="" style="endArrow=classic;startArrow=classic;html=1;rounded=0;exitX=1;exitY=0.5;exitDx=0;exitDy=0;" edge="1" parent="1" source="-_GSLbsh_vdFSHuwJChW-120" target="-_GSLbsh_vdFSHuwJChW-121">
          <mxGeometry width="50" height="50" relative="1" as="geometry">
            <mxPoint x="450" y="730" as="sourcePoint" />
            <mxPoint x="370" y="810" as="targetPoint" />
          </mxGeometry>
        </mxCell>
        <mxCell id="-_GSLbsh_vdFSHuwJChW-136" value="" style="endArrow=classic;startArrow=classic;html=1;rounded=0;entryX=0;entryY=0.5;entryDx=0;entryDy=0;exitX=0.5;exitY=1;exitDx=0;exitDy=0;" edge="1" parent="1" source="-_GSLbsh_vdFSHuwJChW-120" target="-_GSLbsh_vdFSHuwJChW-122">
          <mxGeometry width="50" height="50" relative="1" as="geometry">
            <mxPoint x="450" y="730" as="sourcePoint" />
            <mxPoint x="370" y="810" as="targetPoint" />
          </mxGeometry>
        </mxCell>
        <mxCell id="-_GSLbsh_vdFSHuwJChW-137" value="" style="endArrow=classic;startArrow=classic;html=1;rounded=0;entryX=0;entryY=0.5;entryDx=0;entryDy=0;exitX=0.5;exitY=1;exitDx=0;exitDy=0;" edge="1" parent="1" source="-_GSLbsh_vdFSHuwJChW-120" target="-_GSLbsh_vdFSHuwJChW-123">
          <mxGeometry width="50" height="50" relative="1" as="geometry">
            <mxPoint x="470" y="730" as="sourcePoint" />
            <mxPoint x="730" y="850" as="targetPoint" />
          </mxGeometry>
        </mxCell>
        <mxCell id="-_GSLbsh_vdFSHuwJChW-138" value="" style="endArrow=classic;startArrow=classic;html=1;rounded=0;entryX=0.5;entryY=0;entryDx=0;entryDy=0;exitX=0.5;exitY=1;exitDx=0;exitDy=0;" edge="1" parent="1" source="-_GSLbsh_vdFSHuwJChW-120" target="-_GSLbsh_vdFSHuwJChW-124">
          <mxGeometry width="50" height="50" relative="1" as="geometry">
            <mxPoint x="470" y="730" as="sourcePoint" />
            <mxPoint x="730" y="1010" as="targetPoint" />
          </mxGeometry>
        </mxCell>
        <mxCell id="-_GSLbsh_vdFSHuwJChW-139" value="" style="endArrow=classic;startArrow=classic;html=1;rounded=0;entryX=0.5;entryY=0;entryDx=0;entryDy=0;exitX=0.5;exitY=1;exitDx=0;exitDy=0;" edge="1" parent="1" source="-_GSLbsh_vdFSHuwJChW-120" target="-_GSLbsh_vdFSHuwJChW-125">
          <mxGeometry width="50" height="50" relative="1" as="geometry">
            <mxPoint x="470" y="730" as="sourcePoint" />
            <mxPoint x="630" y="1130" as="targetPoint" />
          </mxGeometry>
        </mxCell>
        <mxCell id="-_GSLbsh_vdFSHuwJChW-140" value="" style="endArrow=classic;startArrow=classic;html=1;rounded=0;entryX=1;entryY=0.5;entryDx=0;entryDy=0;exitX=0.5;exitY=1;exitDx=0;exitDy=0;" edge="1" parent="1" source="-_GSLbsh_vdFSHuwJChW-120" target="-_GSLbsh_vdFSHuwJChW-126">
          <mxGeometry width="50" height="50" relative="1" as="geometry">
            <mxPoint x="470" y="730" as="sourcePoint" />
            <mxPoint x="470" y="1130" as="targetPoint" />
          </mxGeometry>
        </mxCell>
        <mxCell id="-_GSLbsh_vdFSHuwJChW-141" value="" style="endArrow=classic;startArrow=classic;html=1;rounded=0;exitX=0;exitY=0.5;exitDx=0;exitDy=0;entryX=0.5;entryY=1;entryDx=0;entryDy=0;" edge="1" parent="1" source="-_GSLbsh_vdFSHuwJChW-123" target="-_GSLbsh_vdFSHuwJChW-121">
          <mxGeometry width="50" height="50" relative="1" as="geometry">
            <mxPoint x="490" y="690" as="sourcePoint" />
            <mxPoint x="610" y="690" as="targetPoint" />
          </mxGeometry>
        </mxCell>
        <mxCell id="-_GSLbsh_vdFSHuwJChW-142" value="" style="endArrow=classic;startArrow=classic;html=1;rounded=0;exitX=0.5;exitY=0;exitDx=0;exitDy=0;entryX=1;entryY=0.5;entryDx=0;entryDy=0;" edge="1" parent="1" source="-_GSLbsh_vdFSHuwJChW-122" target="-_GSLbsh_vdFSHuwJChW-121">
          <mxGeometry width="50" height="50" relative="1" as="geometry">
            <mxPoint x="730" y="1010" as="sourcePoint" />
            <mxPoint x="630" y="730" as="targetPoint" />
          </mxGeometry>
        </mxCell>
        <mxCell id="-_GSLbsh_vdFSHuwJChW-143" value="" style="endArrow=classic;startArrow=classic;html=1;rounded=0;exitX=0.5;exitY=0;exitDx=0;exitDy=0;entryX=0.5;entryY=1;entryDx=0;entryDy=0;" edge="1" parent="1" source="-_GSLbsh_vdFSHuwJChW-124" target="-_GSLbsh_vdFSHuwJChW-121">
          <mxGeometry width="50" height="50" relative="1" as="geometry">
            <mxPoint x="730" y="1010" as="sourcePoint" />
            <mxPoint x="630" y="730" as="targetPoint" />
          </mxGeometry>
        </mxCell>
        <mxCell id="-_GSLbsh_vdFSHuwJChW-144" value="" style="endArrow=classic;startArrow=classic;html=1;rounded=0;exitX=0.5;exitY=0;exitDx=0;exitDy=0;entryX=0.5;entryY=1;entryDx=0;entryDy=0;" edge="1" parent="1" source="-_GSLbsh_vdFSHuwJChW-125" target="-_GSLbsh_vdFSHuwJChW-121">
          <mxGeometry width="50" height="50" relative="1" as="geometry">
            <mxPoint x="630" y="1130" as="sourcePoint" />
            <mxPoint x="630" y="730" as="targetPoint" />
          </mxGeometry>
        </mxCell>
        <mxCell id="-_GSLbsh_vdFSHuwJChW-145" value="" style="endArrow=classic;startArrow=classic;html=1;rounded=0;exitX=1;exitY=0.5;exitDx=0;exitDy=0;entryX=0.5;entryY=1;entryDx=0;entryDy=0;" edge="1" parent="1" source="-_GSLbsh_vdFSHuwJChW-126" target="-_GSLbsh_vdFSHuwJChW-121">
          <mxGeometry width="50" height="50" relative="1" as="geometry">
            <mxPoint x="470" y="1130" as="sourcePoint" />
            <mxPoint x="630" y="730" as="targetPoint" />
          </mxGeometry>
        </mxCell>
        <mxCell id="-_GSLbsh_vdFSHuwJChW-146" value="" style="endArrow=classic;startArrow=classic;html=1;rounded=0;entryX=0.5;entryY=1;entryDx=0;entryDy=0;" edge="1" parent="1" source="-_GSLbsh_vdFSHuwJChW-123" target="-_GSLbsh_vdFSHuwJChW-122">
          <mxGeometry width="50" height="50" relative="1" as="geometry">
            <mxPoint x="730" y="1010" as="sourcePoint" />
            <mxPoint x="630" y="730" as="targetPoint" />
          </mxGeometry>
        </mxCell>
        <mxCell id="-_GSLbsh_vdFSHuwJChW-147" value="" style="endArrow=classic;startArrow=classic;html=1;rounded=0;entryX=0;entryY=0.5;entryDx=0;entryDy=0;exitX=0.5;exitY=0;exitDx=0;exitDy=0;" edge="1" parent="1" source="-_GSLbsh_vdFSHuwJChW-124" target="-_GSLbsh_vdFSHuwJChW-122">
          <mxGeometry width="50" height="50" relative="1" as="geometry">
            <mxPoint x="750" y="970" as="sourcePoint" />
            <mxPoint x="750" y="890" as="targetPoint" />
          </mxGeometry>
        </mxCell>
        <mxCell id="-_GSLbsh_vdFSHuwJChW-148" value="" style="endArrow=classic;startArrow=classic;html=1;rounded=0;entryX=0;entryY=0.5;entryDx=0;entryDy=0;exitX=0.5;exitY=0;exitDx=0;exitDy=0;" edge="1" parent="1" source="-_GSLbsh_vdFSHuwJChW-125" target="-_GSLbsh_vdFSHuwJChW-122">
          <mxGeometry width="50" height="50" relative="1" as="geometry">
            <mxPoint x="630" y="1130" as="sourcePoint" />
            <mxPoint x="730" y="850" as="targetPoint" />
          </mxGeometry>
        </mxCell>
        <mxCell id="-_GSLbsh_vdFSHuwJChW-149" value="" style="endArrow=classic;startArrow=classic;html=1;rounded=0;entryX=0;entryY=0.5;entryDx=0;entryDy=0;exitX=1;exitY=0.5;exitDx=0;exitDy=0;" edge="1" parent="1" source="-_GSLbsh_vdFSHuwJChW-126" target="-_GSLbsh_vdFSHuwJChW-122">
          <mxGeometry width="50" height="50" relative="1" as="geometry">
            <mxPoint x="470" y="1130" as="sourcePoint" />
            <mxPoint x="730" y="850" as="targetPoint" />
          </mxGeometry>
        </mxCell>
        <mxCell id="-_GSLbsh_vdFSHuwJChW-150" value="" style="endArrow=classic;startArrow=classic;html=1;rounded=0;entryX=1;entryY=0.5;entryDx=0;entryDy=0;exitX=0.5;exitY=1;exitDx=0;exitDy=0;" edge="1" parent="1" source="-_GSLbsh_vdFSHuwJChW-123" target="-_GSLbsh_vdFSHuwJChW-124">
          <mxGeometry width="50" height="50" relative="1" as="geometry">
            <mxPoint x="750" y="970" as="sourcePoint" />
            <mxPoint x="750" y="890" as="targetPoint" />
          </mxGeometry>
        </mxCell>
        <mxCell id="-_GSLbsh_vdFSHuwJChW-151" value="" style="endArrow=classic;startArrow=classic;html=1;rounded=0;entryX=0.5;entryY=0;entryDx=0;entryDy=0;exitX=0;exitY=0.5;exitDx=0;exitDy=0;" edge="1" parent="1" source="-_GSLbsh_vdFSHuwJChW-123" target="-_GSLbsh_vdFSHuwJChW-125">
          <mxGeometry width="50" height="50" relative="1" as="geometry">
            <mxPoint x="750" y="1050" as="sourcePoint" />
            <mxPoint x="650" y="1170" as="targetPoint" />
          </mxGeometry>
        </mxCell>
        <mxCell id="-_GSLbsh_vdFSHuwJChW-152" value="" style="endArrow=classic;startArrow=classic;html=1;rounded=0;entryX=1;entryY=0.5;entryDx=0;entryDy=0;exitX=0;exitY=0.5;exitDx=0;exitDy=0;" edge="1" parent="1" source="-_GSLbsh_vdFSHuwJChW-123" target="-_GSLbsh_vdFSHuwJChW-126">
          <mxGeometry width="50" height="50" relative="1" as="geometry">
            <mxPoint x="750" y="1050" as="sourcePoint" />
            <mxPoint x="650" y="1170" as="targetPoint" />
          </mxGeometry>
        </mxCell>
        <mxCell id="-_GSLbsh_vdFSHuwJChW-153" value="" style="endArrow=classic;startArrow=classic;html=1;rounded=0;entryX=1;entryY=0.5;entryDx=0;entryDy=0;exitX=0.5;exitY=0;exitDx=0;exitDy=0;" edge="1" parent="1" source="-_GSLbsh_vdFSHuwJChW-124" target="-_GSLbsh_vdFSHuwJChW-126">
          <mxGeometry width="50" height="50" relative="1" as="geometry">
            <mxPoint x="730" y="1010" as="sourcePoint" />
            <mxPoint x="370" y="1010" as="targetPoint" />
          </mxGeometry>
        </mxCell>
        <mxCell id="-_GSLbsh_vdFSHuwJChW-154" value="" style="endArrow=classic;startArrow=classic;html=1;rounded=0;entryX=1;entryY=0.5;entryDx=0;entryDy=0;exitX=0;exitY=0.5;exitDx=0;exitDy=0;" edge="1" parent="1" source="-_GSLbsh_vdFSHuwJChW-124" target="-_GSLbsh_vdFSHuwJChW-125">
          <mxGeometry width="50" height="50" relative="1" as="geometry">
            <mxPoint x="630" y="1130" as="sourcePoint" />
            <mxPoint x="350" y="1050" as="targetPoint" />
          </mxGeometry>
        </mxCell>
        <mxCell id="-_GSLbsh_vdFSHuwJChW-155" value="" style="endArrow=classic;startArrow=classic;html=1;rounded=0;entryX=0.5;entryY=1;entryDx=0;entryDy=0;exitX=0;exitY=0.5;exitDx=0;exitDy=0;" edge="1" parent="1" source="-_GSLbsh_vdFSHuwJChW-125" target="-_GSLbsh_vdFSHuwJChW-126">
          <mxGeometry width="50" height="50" relative="1" as="geometry">
            <mxPoint x="610" y="1170" as="sourcePoint" />
            <mxPoint x="490" y="1170" as="targetPoint" />
          </mxGeometry>
        </mxCell>
        <mxCell id="-_GSLbsh_vdFSHuwJChW-156" value="" style="rounded=1;whiteSpace=wrap;html=1;fillColor=#fff2cc;strokeColor=#d6b656;" vertex="1" parent="1">
          <mxGeometry x="-560" y="1410" width="480" height="620" as="geometry" />
        </mxCell>
        <mxCell id="-_GSLbsh_vdFSHuwJChW-157" value="&lt;div&gt;Card 0&lt;/div&gt;DPC&amp;amp;SPM" style="ellipse;whiteSpace=wrap;html=1;fillColor=#e1d5e7;strokeColor=#9673a6;" vertex="1" parent="1">
          <mxGeometry x="-480" y="1480" width="160" height="80" as="geometry" />
        </mxCell>
        <mxCell id="-_GSLbsh_vdFSHuwJChW-159" value="TDMA" style="rounded=0;whiteSpace=wrap;html=1;fillColor=#cdeb8b;strokeColor=#36393d;" vertex="1" parent="1">
          <mxGeometry x="-180" y="1510" width="40" height="20" as="geometry" />
        </mxCell>
        <mxCell id="-_GSLbsh_vdFSHuwJChW-162" value="LINK" style="rounded=0;whiteSpace=wrap;html=1;fillColor=#cdeb8b;strokeColor=#36393d;" vertex="1" parent="1">
          <mxGeometry x="-180" y="1670" width="40" height="20" as="geometry" />
        </mxCell>
        <mxCell id="-_GSLbsh_vdFSHuwJChW-163" value="" style="rounded=0;whiteSpace=wrap;html=1;" vertex="1" parent="1">
          <mxGeometry x="-440" y="1820" width="40" height="160" as="geometry" />
        </mxCell>
        <mxCell id="-_GSLbsh_vdFSHuwJChW-164" value="data[0]" style="rounded=1;whiteSpace=wrap;html=1;fillColor=#dae8fc;strokeColor=#6c8ebf;" vertex="1" parent="1">
          <mxGeometry x="-440" y="1820" width="40" height="20" as="geometry" />
        </mxCell>
        <mxCell id="-_GSLbsh_vdFSHuwJChW-165" value="data[1]" style="rounded=1;whiteSpace=wrap;html=1;fillColor=#dae8fc;strokeColor=#6c8ebf;" vertex="1" parent="1">
          <mxGeometry x="-440" y="1840" width="40" height="20" as="geometry" />
        </mxCell>
        <mxCell id="-_GSLbsh_vdFSHuwJChW-166" value="data[2]" style="rounded=1;whiteSpace=wrap;html=1;fillColor=#dae8fc;strokeColor=#6c8ebf;" vertex="1" parent="1">
          <mxGeometry x="-440" y="1860" width="40" height="20" as="geometry" />
        </mxCell>
        <mxCell id="-_GSLbsh_vdFSHuwJChW-167" value="data[3]" style="rounded=1;whiteSpace=wrap;html=1;fillColor=#dae8fc;strokeColor=#6c8ebf;" vertex="1" parent="1">
          <mxGeometry x="-440" y="1880" width="40" height="20" as="geometry" />
        </mxCell>
        <mxCell id="-_GSLbsh_vdFSHuwJChW-168" value="data[4]" style="rounded=1;whiteSpace=wrap;html=1;fillColor=#dae8fc;strokeColor=#6c8ebf;" vertex="1" parent="1">
          <mxGeometry x="-440" y="1900" width="40" height="20" as="geometry" />
        </mxCell>
        <mxCell id="-_GSLbsh_vdFSHuwJChW-169" value="data[5]" style="rounded=1;whiteSpace=wrap;html=1;fillColor=#dae8fc;strokeColor=#6c8ebf;" vertex="1" parent="1">
          <mxGeometry x="-440" y="1920" width="40" height="20" as="geometry" />
        </mxCell>
        <mxCell id="-_GSLbsh_vdFSHuwJChW-170" value="data[6]" style="rounded=1;whiteSpace=wrap;html=1;fillColor=#dae8fc;strokeColor=#6c8ebf;" vertex="1" parent="1">
          <mxGeometry x="-440" y="1940" width="40" height="20" as="geometry" />
        </mxCell>
        <mxCell id="-_GSLbsh_vdFSHuwJChW-171" value="data[7]" style="rounded=1;whiteSpace=wrap;html=1;fillColor=#dae8fc;strokeColor=#6c8ebf;" vertex="1" parent="1">
          <mxGeometry x="-440" y="1960" width="40" height="20" as="geometry" />
        </mxCell>
        <mxCell id="-_GSLbsh_vdFSHuwJChW-172" value="" style="rounded=0;whiteSpace=wrap;html=1;" vertex="1" parent="1">
          <mxGeometry x="-440" y="1600" width="40" height="160" as="geometry" />
        </mxCell>
        <mxCell id="-_GSLbsh_vdFSHuwJChW-173" value="data[0]" style="rounded=1;whiteSpace=wrap;html=1;fillColor=#fff2cc;strokeColor=#d6b656;gradientColor=#ffd966;" vertex="1" parent="1">
          <mxGeometry x="-440" y="1600" width="40" height="20" as="geometry" />
        </mxCell>
        <mxCell id="-_GSLbsh_vdFSHuwJChW-176" value="data[0]" style="rounded=1;whiteSpace=wrap;html=1;fillColor=#dae8fc;strokeColor=#6c8ebf;" vertex="1" parent="1">
          <mxGeometry x="-440" y="1620" width="40" height="20" as="geometry" />
        </mxCell>
        <mxCell id="-_GSLbsh_vdFSHuwJChW-177" value="data[0]" style="rounded=1;whiteSpace=wrap;html=1;fillColor=#dae8fc;strokeColor=#6c8ebf;" vertex="1" parent="1">
          <mxGeometry x="-440" y="1640" width="40" height="20" as="geometry" />
        </mxCell>
        <mxCell id="-_GSLbsh_vdFSHuwJChW-178" value="data[0]" style="rounded=1;whiteSpace=wrap;html=1;fillColor=#dae8fc;strokeColor=#6c8ebf;" vertex="1" parent="1">
          <mxGeometry x="-440" y="1660" width="40" height="20" as="geometry" />
        </mxCell>
        <mxCell id="-_GSLbsh_vdFSHuwJChW-179" value="data[0]" style="rounded=1;whiteSpace=wrap;html=1;fillColor=#dae8fc;strokeColor=#6c8ebf;" vertex="1" parent="1">
          <mxGeometry x="-440" y="1680" width="40" height="20" as="geometry" />
        </mxCell>
        <mxCell id="-_GSLbsh_vdFSHuwJChW-180" value="data[0]" style="rounded=1;whiteSpace=wrap;html=1;fillColor=#dae8fc;strokeColor=#6c8ebf;" vertex="1" parent="1">
          <mxGeometry x="-440" y="1700" width="40" height="20" as="geometry" />
        </mxCell>
        <mxCell id="-_GSLbsh_vdFSHuwJChW-181" value="data[0]" style="rounded=1;whiteSpace=wrap;html=1;fillColor=#dae8fc;strokeColor=#6c8ebf;" vertex="1" parent="1">
          <mxGeometry x="-440" y="1720" width="40" height="20" as="geometry" />
        </mxCell>
        <mxCell id="-_GSLbsh_vdFSHuwJChW-182" value="data[0]" style="rounded=1;whiteSpace=wrap;html=1;fillColor=#dae8fc;strokeColor=#6c8ebf;" vertex="1" parent="1">
          <mxGeometry x="-440" y="1740" width="40" height="20" as="geometry" />
        </mxCell>
        <mxCell id="-_GSLbsh_vdFSHuwJChW-185" value="Card 1" style="rounded=0;whiteSpace=wrap;html=1;fillColor=#fff2cc;strokeColor=#d6b656;" vertex="1" parent="1">
          <mxGeometry x="80" y="1400" width="40" height="80" as="geometry" />
        </mxCell>
        <mxCell id="-_GSLbsh_vdFSHuwJChW-186" value="Card 2" style="rounded=0;whiteSpace=wrap;html=1;fillColor=#fff2cc;strokeColor=#d6b656;" vertex="1" parent="1">
          <mxGeometry x="80" y="1480" width="40" height="80" as="geometry" />
        </mxCell>
        <mxCell id="-_GSLbsh_vdFSHuwJChW-187" value="Card 3" style="rounded=0;whiteSpace=wrap;html=1;fillColor=#fff2cc;strokeColor=#d6b656;" vertex="1" parent="1">
          <mxGeometry x="80" y="1560" width="40" height="80" as="geometry" />
        </mxCell>
        <mxCell id="-_GSLbsh_vdFSHuwJChW-189" value="Card 5" style="rounded=0;whiteSpace=wrap;html=1;fillColor=#fff2cc;strokeColor=#d6b656;" vertex="1" parent="1">
          <mxGeometry x="80" y="1720" width="40" height="80" as="geometry" />
        </mxCell>
        <mxCell id="-_GSLbsh_vdFSHuwJChW-190" value="Card 6" style="rounded=0;whiteSpace=wrap;html=1;fillColor=#fff2cc;strokeColor=#d6b656;" vertex="1" parent="1">
          <mxGeometry x="80" y="1800" width="40" height="80" as="geometry" />
        </mxCell>
        <mxCell id="-_GSLbsh_vdFSHuwJChW-191" value="Card 7" style="rounded=0;whiteSpace=wrap;html=1;fillColor=#fff2cc;strokeColor=#d6b656;" vertex="1" parent="1">
          <mxGeometry x="80" y="1880" width="40" height="80" as="geometry" />
        </mxCell>
        <mxCell id="-_GSLbsh_vdFSHuwJChW-194" value="Card 0" style="text;html=1;align=center;verticalAlign=middle;whiteSpace=wrap;rounded=0;" vertex="1" parent="1">
          <mxGeometry x="-510" y="1430" width="60" height="30" as="geometry" />
        </mxCell>
        <mxCell id="-_GSLbsh_vdFSHuwJChW-195" value="Card 1" style="rounded=0;whiteSpace=wrap;html=1;fillColor=#fff2cc;strokeColor=#d6b656;" vertex="1" parent="1">
          <mxGeometry x="440" y="1440" width="40" height="80" as="geometry" />
        </mxCell>
        <mxCell id="-_GSLbsh_vdFSHuwJChW-196" value="Card 2" style="rounded=0;whiteSpace=wrap;html=1;fillColor=#fff2cc;strokeColor=#d6b656;" vertex="1" parent="1">
          <mxGeometry x="600" y="1440" width="40" height="80" as="geometry" />
        </mxCell>
        <mxCell id="-_GSLbsh_vdFSHuwJChW-197" value="Card 3" style="rounded=0;whiteSpace=wrap;html=1;fillColor=#fff2cc;strokeColor=#d6b656;" vertex="1" parent="1">
          <mxGeometry x="720" y="1600" width="40" height="80" as="geometry" />
        </mxCell>
        <mxCell id="-_GSLbsh_vdFSHuwJChW-198" value="Card 4" style="rounded=0;whiteSpace=wrap;html=1;fillColor=#fff2cc;strokeColor=#d6b656;" vertex="1" parent="1">
          <mxGeometry x="720" y="1760" width="40" height="80" as="geometry" />
        </mxCell>
        <mxCell id="-_GSLbsh_vdFSHuwJChW-199" value="Card 5" style="rounded=0;whiteSpace=wrap;html=1;fillColor=#fff2cc;strokeColor=#d6b656;" vertex="1" parent="1">
          <mxGeometry x="600" y="1920" width="40" height="80" as="geometry" />
        </mxCell>
        <mxCell id="-_GSLbsh_vdFSHuwJChW-200" value="Card 6" style="rounded=0;whiteSpace=wrap;html=1;fillColor=#fff2cc;strokeColor=#d6b656;" vertex="1" parent="1">
          <mxGeometry x="440" y="1920" width="40" height="80" as="geometry" />
        </mxCell>
        <mxCell id="-_GSLbsh_vdFSHuwJChW-201" value="Card 7" style="rounded=0;whiteSpace=wrap;html=1;fillColor=#fff2cc;strokeColor=#d6b656;" vertex="1" parent="1">
          <mxGeometry x="320" y="1760" width="40" height="80" as="geometry" />
        </mxCell>
        <mxCell id="-_GSLbsh_vdFSHuwJChW-202" value="Card 0" style="rounded=0;whiteSpace=wrap;html=1;fillColor=#fff2cc;strokeColor=#d6b656;" vertex="1" parent="1">
          <mxGeometry x="320" y="1600" width="40" height="80" as="geometry" />
        </mxCell>
        <mxCell id="-_GSLbsh_vdFSHuwJChW-231" value="Red EN" style="rounded=0;whiteSpace=wrap;html=1;fillColor=#cdeb8b;strokeColor=#36393d;" vertex="1" parent="1">
          <mxGeometry x="-550" y="1670" width="50" height="20" as="geometry" />
        </mxCell>
        <mxCell id="-_GSLbsh_vdFSHuwJChW-232" value="" style="endArrow=classic;html=1;rounded=0;entryX=1;entryY=0.5;entryDx=0;entryDy=0;exitX=0;exitY=0.5;exitDx=0;exitDy=0;" edge="1" parent="1" source="-_GSLbsh_vdFSHuwJChW-182" target="-_GSLbsh_vdFSHuwJChW-231">
          <mxGeometry width="50" height="50" relative="1" as="geometry">
            <mxPoint x="-390" y="1730" as="sourcePoint" />
            <mxPoint x="-340" y="1680" as="targetPoint" />
          </mxGeometry>
        </mxCell>
        <mxCell id="-_GSLbsh_vdFSHuwJChW-233" value="" style="endArrow=classic;html=1;rounded=0;entryX=1;entryY=0.5;entryDx=0;entryDy=0;exitX=0;exitY=0.5;exitDx=0;exitDy=0;" edge="1" parent="1" source="-_GSLbsh_vdFSHuwJChW-181" target="-_GSLbsh_vdFSHuwJChW-231">
          <mxGeometry width="50" height="50" relative="1" as="geometry">
            <mxPoint x="-430" y="1760" as="sourcePoint" />
            <mxPoint x="-490" y="1690" as="targetPoint" />
          </mxGeometry>
        </mxCell>
        <mxCell id="-_GSLbsh_vdFSHuwJChW-234" value="" style="endArrow=classic;html=1;rounded=0;entryX=1;entryY=0.5;entryDx=0;entryDy=0;exitX=0;exitY=0.5;exitDx=0;exitDy=0;" edge="1" parent="1" source="-_GSLbsh_vdFSHuwJChW-180" target="-_GSLbsh_vdFSHuwJChW-231">
          <mxGeometry width="50" height="50" relative="1" as="geometry">
            <mxPoint x="-430" y="1740" as="sourcePoint" />
            <mxPoint x="-490" y="1690" as="targetPoint" />
          </mxGeometry>
        </mxCell>
        <mxCell id="-_GSLbsh_vdFSHuwJChW-235" value="" style="endArrow=classic;html=1;rounded=0;entryX=1;entryY=0.5;entryDx=0;entryDy=0;exitX=0;exitY=0.5;exitDx=0;exitDy=0;" edge="1" parent="1" source="-_GSLbsh_vdFSHuwJChW-179" target="-_GSLbsh_vdFSHuwJChW-231">
          <mxGeometry width="50" height="50" relative="1" as="geometry">
            <mxPoint x="-430" y="1720" as="sourcePoint" />
            <mxPoint x="-490" y="1690" as="targetPoint" />
          </mxGeometry>
        </mxCell>
        <mxCell id="-_GSLbsh_vdFSHuwJChW-236" value="" style="endArrow=classic;html=1;rounded=0;entryX=1;entryY=0.5;entryDx=0;entryDy=0;exitX=0;exitY=0.5;exitDx=0;exitDy=0;" edge="1" parent="1" source="-_GSLbsh_vdFSHuwJChW-178" target="-_GSLbsh_vdFSHuwJChW-231">
          <mxGeometry width="50" height="50" relative="1" as="geometry">
            <mxPoint x="-430" y="1700" as="sourcePoint" />
            <mxPoint x="-490" y="1690" as="targetPoint" />
          </mxGeometry>
        </mxCell>
        <mxCell id="-_GSLbsh_vdFSHuwJChW-237" value="" style="endArrow=classic;html=1;rounded=0;entryX=1;entryY=0.5;entryDx=0;entryDy=0;exitX=0;exitY=0.5;exitDx=0;exitDy=0;" edge="1" parent="1" source="-_GSLbsh_vdFSHuwJChW-177" target="-_GSLbsh_vdFSHuwJChW-231">
          <mxGeometry width="50" height="50" relative="1" as="geometry">
            <mxPoint x="-430" y="1680" as="sourcePoint" />
            <mxPoint x="-490" y="1690" as="targetPoint" />
          </mxGeometry>
        </mxCell>
        <mxCell id="-_GSLbsh_vdFSHuwJChW-238" value="" style="endArrow=classic;html=1;rounded=0;entryX=1;entryY=0.5;entryDx=0;entryDy=0;exitX=0;exitY=0.5;exitDx=0;exitDy=0;" edge="1" parent="1" source="-_GSLbsh_vdFSHuwJChW-176" target="-_GSLbsh_vdFSHuwJChW-231">
          <mxGeometry width="50" height="50" relative="1" as="geometry">
            <mxPoint x="-430" y="1660" as="sourcePoint" />
            <mxPoint x="-490" y="1690" as="targetPoint" />
          </mxGeometry>
        </mxCell>
        <mxCell id="-_GSLbsh_vdFSHuwJChW-239" value="" style="endArrow=classic;html=1;rounded=0;entryX=1;entryY=0.5;entryDx=0;entryDy=0;exitX=0;exitY=0.5;exitDx=0;exitDy=0;" edge="1" parent="1" source="-_GSLbsh_vdFSHuwJChW-173" target="-_GSLbsh_vdFSHuwJChW-231">
          <mxGeometry width="50" height="50" relative="1" as="geometry">
            <mxPoint x="-430" y="1640" as="sourcePoint" />
            <mxPoint x="-490" y="1690" as="targetPoint" />
          </mxGeometry>
        </mxCell>
        <mxCell id="-_GSLbsh_vdFSHuwJChW-240" value="" style="curved=1;endArrow=classic;html=1;rounded=0;entryX=0;entryY=0.5;entryDx=0;entryDy=0;exitX=0.5;exitY=0;exitDx=0;exitDy=0;" edge="1" parent="1" source="-_GSLbsh_vdFSHuwJChW-231" target="-_GSLbsh_vdFSHuwJChW-173">
          <mxGeometry width="50" height="50" relative="1" as="geometry">
            <mxPoint x="-480" y="1690" as="sourcePoint" />
            <mxPoint x="-430" y="1640" as="targetPoint" />
            <Array as="points">
              <mxPoint x="-510" y="1610" />
            </Array>
          </mxGeometry>
        </mxCell>
        <mxCell id="-_GSLbsh_vdFSHuwJChW-241" value="Card 4" style="rounded=0;whiteSpace=wrap;html=1;fillColor=#fff2cc;strokeColor=#d6b656;" vertex="1" parent="1">
          <mxGeometry x="80" y="1640" width="40" height="80" as="geometry" />
        </mxCell>
        <mxCell id="-_GSLbsh_vdFSHuwJChW-242" value="Calculate" style="text;html=1;align=center;verticalAlign=middle;whiteSpace=wrap;rounded=0;" vertex="1" parent="1">
          <mxGeometry x="510" y="1705" width="60" height="30" as="geometry" />
        </mxCell>
        <mxCell id="-_GSLbsh_vdFSHuwJChW-244" value="&lt;div&gt;Card 0&lt;/div&gt;DPC&amp;amp;SPM" style="ellipse;whiteSpace=wrap;html=1;fillColor=#e1d5e7;strokeColor=#9673a6;" vertex="1" parent="1">
          <mxGeometry x="-480" y="2280" width="160" height="80" as="geometry" />
        </mxCell>
        <mxCell id="-_GSLbsh_vdFSHuwJChW-246" value="TDMA" style="rounded=0;whiteSpace=wrap;html=1;fillColor=#cdeb8b;strokeColor=#36393d;" vertex="1" parent="1">
          <mxGeometry x="-180" y="2310" width="40" height="20" as="geometry" />
        </mxCell>
        <mxCell id="-_GSLbsh_vdFSHuwJChW-247" value="" style="endArrow=classic;html=1;rounded=0;exitX=1;exitY=0.5;exitDx=0;exitDy=0;entryX=0;entryY=0.5;entryDx=0;entryDy=0;" edge="1" parent="1" source="-_GSLbsh_vdFSHuwJChW-244" target="-_GSLbsh_vdFSHuwJChW-246">
          <mxGeometry width="50" height="50" relative="1" as="geometry">
            <mxPoint x="-360" y="2590" as="sourcePoint" />
            <mxPoint x="-310" y="2540" as="targetPoint" />
          </mxGeometry>
        </mxCell>
        <mxCell id="-_GSLbsh_vdFSHuwJChW-248" value="Trigg&lt;span style=&quot;background-color: light-dark(#ffffff, var(--ge-dark-color, #121212)); color: light-dark(rgb(0, 0, 0), rgb(255, 255, 255));&quot;&gt;er TDMA&amp;nbsp;&lt;/span&gt;&lt;div&gt;&lt;span style=&quot;background-color: light-dark(#ffffff, var(--ge-dark-color, #121212)); color: light-dark(rgb(0, 0, 0), rgb(255, 255, 255));&quot;&gt;write data to Card 1&lt;/span&gt;&lt;/div&gt;" style="edgeLabel;html=1;align=center;verticalAlign=middle;resizable=0;points=[];" vertex="1" connectable="0" parent="-_GSLbsh_vdFSHuwJChW-247">
          <mxGeometry x="-0.2277" relative="1" as="geometry">
            <mxPoint as="offset" />
          </mxGeometry>
        </mxCell>
        <mxCell id="-_GSLbsh_vdFSHuwJChW-249" value="LINK" style="rounded=0;whiteSpace=wrap;html=1;fillColor=#cdeb8b;strokeColor=#36393d;" vertex="1" parent="1">
          <mxGeometry x="-180" y="2470" width="40" height="20" as="geometry" />
        </mxCell>
        <mxCell id="-_GSLbsh_vdFSHuwJChW-250" value="" style="rounded=0;whiteSpace=wrap;html=1;fillColor=#fff2cc;gradientColor=#ffd966;strokeColor=#d6b656;" vertex="1" parent="1">
          <mxGeometry x="-440" y="2620" width="40" height="160" as="geometry" />
        </mxCell>
        <mxCell id="-_GSLbsh_vdFSHuwJChW-251" value="data[0]" style="rounded=1;whiteSpace=wrap;html=1;fillColor=#fff2cc;strokeColor=#d6b656;gradientColor=#ffd966;" vertex="1" parent="1">
          <mxGeometry x="-440" y="2620" width="40" height="20" as="geometry" />
        </mxCell>
        <mxCell id="-_GSLbsh_vdFSHuwJChW-252" value="data[1]" style="rounded=1;whiteSpace=wrap;html=1;fillColor=#fff2cc;strokeColor=#d6b656;gradientColor=#ffd966;" vertex="1" parent="1">
          <mxGeometry x="-440" y="2640" width="40" height="20" as="geometry" />
        </mxCell>
        <mxCell id="-_GSLbsh_vdFSHuwJChW-253" value="data[2]" style="rounded=1;whiteSpace=wrap;html=1;fillColor=#fff2cc;strokeColor=#d6b656;gradientColor=#ffd966;" vertex="1" parent="1">
          <mxGeometry x="-440" y="2660" width="40" height="20" as="geometry" />
        </mxCell>
        <mxCell id="-_GSLbsh_vdFSHuwJChW-254" value="data[3]" style="rounded=1;whiteSpace=wrap;html=1;fillColor=#fff2cc;strokeColor=#d6b656;gradientColor=#ffd966;" vertex="1" parent="1">
          <mxGeometry x="-440" y="2680" width="40" height="20" as="geometry" />
        </mxCell>
        <mxCell id="-_GSLbsh_vdFSHuwJChW-255" value="data[4]" style="rounded=1;whiteSpace=wrap;html=1;fillColor=#fff2cc;strokeColor=#d6b656;gradientColor=#ffd966;" vertex="1" parent="1">
          <mxGeometry x="-440" y="2700" width="40" height="20" as="geometry" />
        </mxCell>
        <mxCell id="-_GSLbsh_vdFSHuwJChW-256" value="data[5]" style="rounded=1;whiteSpace=wrap;html=1;fillColor=#fff2cc;strokeColor=#d6b656;gradientColor=#ffd966;" vertex="1" parent="1">
          <mxGeometry x="-440" y="2720" width="40" height="20" as="geometry" />
        </mxCell>
        <mxCell id="-_GSLbsh_vdFSHuwJChW-257" value="data[6]" style="rounded=1;whiteSpace=wrap;html=1;fillColor=#fff2cc;strokeColor=#d6b656;gradientColor=#ffd966;" vertex="1" parent="1">
          <mxGeometry x="-440" y="2740" width="40" height="20" as="geometry" />
        </mxCell>
        <mxCell id="-_GSLbsh_vdFSHuwJChW-258" value="data[7]" style="rounded=1;whiteSpace=wrap;html=1;fillColor=#fff2cc;strokeColor=#d6b656;gradientColor=#ffd966;" vertex="1" parent="1">
          <mxGeometry x="-440" y="2760" width="40" height="20" as="geometry" />
        </mxCell>
        <mxCell id="-_GSLbsh_vdFSHuwJChW-259" value="" style="rounded=0;whiteSpace=wrap;html=1;" vertex="1" parent="1">
          <mxGeometry x="-440" y="2400" width="40" height="160" as="geometry" />
        </mxCell>
        <mxCell id="-_GSLbsh_vdFSHuwJChW-260" value="data[0]" style="rounded=1;whiteSpace=wrap;html=1;fillColor=#fff2cc;strokeColor=#d6b656;gradientColor=#ffd966;" vertex="1" parent="1">
          <mxGeometry x="-440" y="2400" width="40" height="20" as="geometry" />
        </mxCell>
        <mxCell id="-_GSLbsh_vdFSHuwJChW-263" value="data[0]" style="rounded=1;whiteSpace=wrap;html=1;fillColor=#dae8fc;strokeColor=#6c8ebf;" vertex="1" parent="1">
          <mxGeometry x="-440" y="2420" width="40" height="20" as="geometry" />
        </mxCell>
        <mxCell id="-_GSLbsh_vdFSHuwJChW-264" value="data[0]" style="rounded=1;whiteSpace=wrap;html=1;fillColor=#dae8fc;strokeColor=#6c8ebf;" vertex="1" parent="1">
          <mxGeometry x="-440" y="2440" width="40" height="20" as="geometry" />
        </mxCell>
        <mxCell id="-_GSLbsh_vdFSHuwJChW-265" value="data[0]" style="rounded=1;whiteSpace=wrap;html=1;fillColor=#dae8fc;strokeColor=#6c8ebf;" vertex="1" parent="1">
          <mxGeometry x="-440" y="2460" width="40" height="20" as="geometry" />
        </mxCell>
        <mxCell id="-_GSLbsh_vdFSHuwJChW-266" value="data[0]" style="rounded=1;whiteSpace=wrap;html=1;fillColor=#dae8fc;strokeColor=#6c8ebf;" vertex="1" parent="1">
          <mxGeometry x="-440" y="2480" width="40" height="20" as="geometry" />
        </mxCell>
        <mxCell id="-_GSLbsh_vdFSHuwJChW-267" value="data[0]" style="rounded=1;whiteSpace=wrap;html=1;fillColor=#dae8fc;strokeColor=#6c8ebf;" vertex="1" parent="1">
          <mxGeometry x="-440" y="2500" width="40" height="20" as="geometry" />
        </mxCell>
        <mxCell id="-_GSLbsh_vdFSHuwJChW-268" value="data[0]" style="rounded=1;whiteSpace=wrap;html=1;fillColor=#dae8fc;strokeColor=#6c8ebf;" vertex="1" parent="1">
          <mxGeometry x="-440" y="2520" width="40" height="20" as="geometry" />
        </mxCell>
        <mxCell id="-_GSLbsh_vdFSHuwJChW-269" value="data[0]" style="rounded=1;whiteSpace=wrap;html=1;fillColor=#dae8fc;strokeColor=#6c8ebf;" vertex="1" parent="1">
          <mxGeometry x="-440" y="2540" width="40" height="20" as="geometry" />
        </mxCell>
        <mxCell id="-_GSLbsh_vdFSHuwJChW-272" value="Card 1" style="rounded=0;whiteSpace=wrap;html=1;fillColor=#fff2cc;strokeColor=#d6b656;" vertex="1" parent="1">
          <mxGeometry x="80" y="2200" width="40" height="80" as="geometry" />
        </mxCell>
        <mxCell id="-_GSLbsh_vdFSHuwJChW-273" value="Card 2" style="rounded=0;whiteSpace=wrap;html=1;fillColor=#fff2cc;strokeColor=#d6b656;" vertex="1" parent="1">
          <mxGeometry x="80" y="2280" width="40" height="80" as="geometry" />
        </mxCell>
        <mxCell id="-_GSLbsh_vdFSHuwJChW-274" value="Card 3" style="rounded=0;whiteSpace=wrap;html=1;fillColor=#fff2cc;strokeColor=#d6b656;" vertex="1" parent="1">
          <mxGeometry x="80" y="2360" width="40" height="80" as="geometry" />
        </mxCell>
        <mxCell id="-_GSLbsh_vdFSHuwJChW-275" value="Card 4" style="rounded=0;whiteSpace=wrap;html=1;fillColor=#fff2cc;strokeColor=#d6b656;" vertex="1" parent="1">
          <mxGeometry x="80" y="2440" width="40" height="80" as="geometry" />
        </mxCell>
        <mxCell id="-_GSLbsh_vdFSHuwJChW-276" value="Card 5" style="rounded=0;whiteSpace=wrap;html=1;fillColor=#fff2cc;strokeColor=#d6b656;" vertex="1" parent="1">
          <mxGeometry x="80" y="2520" width="40" height="80" as="geometry" />
        </mxCell>
        <mxCell id="-_GSLbsh_vdFSHuwJChW-277" value="Card 6" style="rounded=0;whiteSpace=wrap;html=1;fillColor=#fff2cc;strokeColor=#d6b656;" vertex="1" parent="1">
          <mxGeometry x="80" y="2600" width="40" height="80" as="geometry" />
        </mxCell>
        <mxCell id="-_GSLbsh_vdFSHuwJChW-278" value="Card 7" style="rounded=0;whiteSpace=wrap;html=1;fillColor=#fff2cc;strokeColor=#d6b656;" vertex="1" parent="1">
          <mxGeometry x="80" y="2680" width="40" height="80" as="geometry" />
        </mxCell>
        <mxCell id="-_GSLbsh_vdFSHuwJChW-279" value="" style="shape=flexArrow;endArrow=classic;startArrow=classic;html=1;rounded=0;entryX=0;entryY=0.5;entryDx=0;entryDy=0;exitX=1;exitY=0.5;exitDx=0;exitDy=0;fillColor=#d5e8d4;strokeColor=#82b366;" edge="1" parent="1" source="-_GSLbsh_vdFSHuwJChW-249" target="-_GSLbsh_vdFSHuwJChW-275">
          <mxGeometry width="100" height="100" relative="1" as="geometry">
            <mxPoint x="-110" y="2510" as="sourcePoint" />
            <mxPoint x="-10" y="2410" as="targetPoint" />
          </mxGeometry>
        </mxCell>
        <mxCell id="-_GSLbsh_vdFSHuwJChW-280" value="Send data[0] to other Cards&lt;div&gt;Recve data[n] From Card n&lt;/div&gt;" style="edgeLabel;html=1;align=center;verticalAlign=middle;resizable=0;points=[];" vertex="1" connectable="0" parent="-_GSLbsh_vdFSHuwJChW-279">
          <mxGeometry y="2" relative="1" as="geometry">
            <mxPoint as="offset" />
          </mxGeometry>
        </mxCell>
        <mxCell id="-_GSLbsh_vdFSHuwJChW-281" value="Card 0" style="text;html=1;align=center;verticalAlign=middle;whiteSpace=wrap;rounded=0;" vertex="1" parent="1">
          <mxGeometry x="-510" y="2230" width="60" height="30" as="geometry" />
        </mxCell>
        <mxCell id="-_GSLbsh_vdFSHuwJChW-282" value="Card 1" style="rounded=0;whiteSpace=wrap;html=1;fillColor=#fff2cc;strokeColor=#d6b656;" vertex="1" parent="1">
          <mxGeometry x="440" y="2240" width="40" height="80" as="geometry" />
        </mxCell>
        <mxCell id="-_GSLbsh_vdFSHuwJChW-283" value="Card 2" style="rounded=0;whiteSpace=wrap;html=1;fillColor=#fff2cc;strokeColor=#d6b656;" vertex="1" parent="1">
          <mxGeometry x="600" y="2240" width="40" height="80" as="geometry" />
        </mxCell>
        <mxCell id="-_GSLbsh_vdFSHuwJChW-284" value="Card 3" style="rounded=0;whiteSpace=wrap;html=1;fillColor=#fff2cc;strokeColor=#d6b656;" vertex="1" parent="1">
          <mxGeometry x="720" y="2400" width="40" height="80" as="geometry" />
        </mxCell>
        <mxCell id="-_GSLbsh_vdFSHuwJChW-285" value="Card 4" style="rounded=0;whiteSpace=wrap;html=1;fillColor=#fff2cc;strokeColor=#d6b656;" vertex="1" parent="1">
          <mxGeometry x="720" y="2560" width="40" height="80" as="geometry" />
        </mxCell>
        <mxCell id="-_GSLbsh_vdFSHuwJChW-286" value="Card 5" style="rounded=0;whiteSpace=wrap;html=1;fillColor=#fff2cc;strokeColor=#d6b656;" vertex="1" parent="1">
          <mxGeometry x="600" y="2720" width="40" height="80" as="geometry" />
        </mxCell>
        <mxCell id="-_GSLbsh_vdFSHuwJChW-287" value="Card 6" style="rounded=0;whiteSpace=wrap;html=1;fillColor=#fff2cc;strokeColor=#d6b656;" vertex="1" parent="1">
          <mxGeometry x="440" y="2720" width="40" height="80" as="geometry" />
        </mxCell>
        <mxCell id="-_GSLbsh_vdFSHuwJChW-288" value="Card 7" style="rounded=0;whiteSpace=wrap;html=1;fillColor=#fff2cc;strokeColor=#d6b656;" vertex="1" parent="1">
          <mxGeometry x="320" y="2560" width="40" height="80" as="geometry" />
        </mxCell>
        <mxCell id="-_GSLbsh_vdFSHuwJChW-289" value="Card 0" style="rounded=0;whiteSpace=wrap;html=1;fillColor=#fff2cc;strokeColor=#d6b656;" vertex="1" parent="1">
          <mxGeometry x="320" y="2400" width="40" height="80" as="geometry" />
        </mxCell>
        <mxCell id="-_GSLbsh_vdFSHuwJChW-290" value="" style="endArrow=classic;startArrow=classic;html=1;rounded=0;entryX=0.5;entryY=1;entryDx=0;entryDy=0;exitX=0.5;exitY=0;exitDx=0;exitDy=0;" edge="1" parent="1" source="-_GSLbsh_vdFSHuwJChW-288" target="-_GSLbsh_vdFSHuwJChW-289">
          <mxGeometry width="50" height="50" relative="1" as="geometry">
            <mxPoint x="160" y="2570" as="sourcePoint" />
            <mxPoint x="210" y="2520" as="targetPoint" />
          </mxGeometry>
        </mxCell>
        <mxCell id="-_GSLbsh_vdFSHuwJChW-291" value="" style="endArrow=classic;startArrow=classic;html=1;rounded=0;entryX=1;entryY=0.5;entryDx=0;entryDy=0;exitX=0.5;exitY=0;exitDx=0;exitDy=0;" edge="1" parent="1" source="-_GSLbsh_vdFSHuwJChW-287" target="-_GSLbsh_vdFSHuwJChW-289">
          <mxGeometry width="50" height="50" relative="1" as="geometry">
            <mxPoint x="350" y="2570" as="sourcePoint" />
            <mxPoint x="350" y="2490" as="targetPoint" />
          </mxGeometry>
        </mxCell>
        <mxCell id="-_GSLbsh_vdFSHuwJChW-292" value="" style="endArrow=classic;startArrow=classic;html=1;rounded=0;entryX=1;entryY=0.5;entryDx=0;entryDy=0;exitX=0.5;exitY=0;exitDx=0;exitDy=0;" edge="1" parent="1" source="-_GSLbsh_vdFSHuwJChW-286" target="-_GSLbsh_vdFSHuwJChW-289">
          <mxGeometry width="50" height="50" relative="1" as="geometry">
            <mxPoint x="470" y="2730" as="sourcePoint" />
            <mxPoint x="370" y="2450" as="targetPoint" />
          </mxGeometry>
        </mxCell>
        <mxCell id="-_GSLbsh_vdFSHuwJChW-293" value="" style="endArrow=classic;startArrow=classic;html=1;rounded=0;entryX=1;entryY=0.5;entryDx=0;entryDy=0;exitX=0;exitY=0.5;exitDx=0;exitDy=0;" edge="1" parent="1" source="-_GSLbsh_vdFSHuwJChW-285" target="-_GSLbsh_vdFSHuwJChW-289">
          <mxGeometry width="50" height="50" relative="1" as="geometry">
            <mxPoint x="630" y="2730" as="sourcePoint" />
            <mxPoint x="370" y="2450" as="targetPoint" />
          </mxGeometry>
        </mxCell>
        <mxCell id="-_GSLbsh_vdFSHuwJChW-294" value="" style="endArrow=classic;startArrow=classic;html=1;rounded=0;entryX=1;entryY=0.5;entryDx=0;entryDy=0;" edge="1" parent="1" source="-_GSLbsh_vdFSHuwJChW-284" target="-_GSLbsh_vdFSHuwJChW-289">
          <mxGeometry width="50" height="50" relative="1" as="geometry">
            <mxPoint x="730" y="2610" as="sourcePoint" />
            <mxPoint x="370" y="2450" as="targetPoint" />
          </mxGeometry>
        </mxCell>
        <mxCell id="-_GSLbsh_vdFSHuwJChW-295" value="" style="endArrow=classic;startArrow=classic;html=1;rounded=0;entryX=1;entryY=0.5;entryDx=0;entryDy=0;exitX=0.5;exitY=1;exitDx=0;exitDy=0;" edge="1" parent="1" source="-_GSLbsh_vdFSHuwJChW-283" target="-_GSLbsh_vdFSHuwJChW-289">
          <mxGeometry width="50" height="50" relative="1" as="geometry">
            <mxPoint x="730" y="2450" as="sourcePoint" />
            <mxPoint x="370" y="2450" as="targetPoint" />
          </mxGeometry>
        </mxCell>
        <mxCell id="-_GSLbsh_vdFSHuwJChW-296" value="" style="endArrow=classic;startArrow=classic;html=1;rounded=0;entryX=0.5;entryY=0;entryDx=0;entryDy=0;exitX=0;exitY=0.5;exitDx=0;exitDy=0;" edge="1" parent="1" source="-_GSLbsh_vdFSHuwJChW-282" target="-_GSLbsh_vdFSHuwJChW-289">
          <mxGeometry width="50" height="50" relative="1" as="geometry">
            <mxPoint x="610" y="2330" as="sourcePoint" />
            <mxPoint x="370" y="2450" as="targetPoint" />
          </mxGeometry>
        </mxCell>
        <mxCell id="-_GSLbsh_vdFSHuwJChW-297" value="" style="endArrow=classic;startArrow=classic;html=1;rounded=0;exitX=1;exitY=0.5;exitDx=0;exitDy=0;" edge="1" parent="1" source="-_GSLbsh_vdFSHuwJChW-282" target="-_GSLbsh_vdFSHuwJChW-283">
          <mxGeometry width="50" height="50" relative="1" as="geometry">
            <mxPoint x="450" y="2330" as="sourcePoint" />
            <mxPoint x="370" y="2410" as="targetPoint" />
          </mxGeometry>
        </mxCell>
        <mxCell id="-_GSLbsh_vdFSHuwJChW-298" value="" style="endArrow=classic;startArrow=classic;html=1;rounded=0;entryX=0;entryY=0.5;entryDx=0;entryDy=0;exitX=0.5;exitY=1;exitDx=0;exitDy=0;" edge="1" parent="1" source="-_GSLbsh_vdFSHuwJChW-282" target="-_GSLbsh_vdFSHuwJChW-284">
          <mxGeometry width="50" height="50" relative="1" as="geometry">
            <mxPoint x="450" y="2330" as="sourcePoint" />
            <mxPoint x="370" y="2410" as="targetPoint" />
          </mxGeometry>
        </mxCell>
        <mxCell id="-_GSLbsh_vdFSHuwJChW-299" value="" style="endArrow=classic;startArrow=classic;html=1;rounded=0;entryX=0;entryY=0.5;entryDx=0;entryDy=0;exitX=0.5;exitY=1;exitDx=0;exitDy=0;" edge="1" parent="1" source="-_GSLbsh_vdFSHuwJChW-282" target="-_GSLbsh_vdFSHuwJChW-285">
          <mxGeometry width="50" height="50" relative="1" as="geometry">
            <mxPoint x="470" y="2330" as="sourcePoint" />
            <mxPoint x="730" y="2450" as="targetPoint" />
          </mxGeometry>
        </mxCell>
        <mxCell id="-_GSLbsh_vdFSHuwJChW-300" value="" style="endArrow=classic;startArrow=classic;html=1;rounded=0;entryX=0.5;entryY=0;entryDx=0;entryDy=0;exitX=0.5;exitY=1;exitDx=0;exitDy=0;" edge="1" parent="1" source="-_GSLbsh_vdFSHuwJChW-282" target="-_GSLbsh_vdFSHuwJChW-286">
          <mxGeometry width="50" height="50" relative="1" as="geometry">
            <mxPoint x="470" y="2330" as="sourcePoint" />
            <mxPoint x="730" y="2610" as="targetPoint" />
          </mxGeometry>
        </mxCell>
        <mxCell id="-_GSLbsh_vdFSHuwJChW-301" value="" style="endArrow=classic;startArrow=classic;html=1;rounded=0;entryX=0.5;entryY=0;entryDx=0;entryDy=0;exitX=0.5;exitY=1;exitDx=0;exitDy=0;" edge="1" parent="1" source="-_GSLbsh_vdFSHuwJChW-282" target="-_GSLbsh_vdFSHuwJChW-287">
          <mxGeometry width="50" height="50" relative="1" as="geometry">
            <mxPoint x="470" y="2330" as="sourcePoint" />
            <mxPoint x="630" y="2730" as="targetPoint" />
          </mxGeometry>
        </mxCell>
        <mxCell id="-_GSLbsh_vdFSHuwJChW-302" value="" style="endArrow=classic;startArrow=classic;html=1;rounded=0;entryX=1;entryY=0.5;entryDx=0;entryDy=0;exitX=0.5;exitY=1;exitDx=0;exitDy=0;" edge="1" parent="1" source="-_GSLbsh_vdFSHuwJChW-282" target="-_GSLbsh_vdFSHuwJChW-288">
          <mxGeometry width="50" height="50" relative="1" as="geometry">
            <mxPoint x="470" y="2330" as="sourcePoint" />
            <mxPoint x="470" y="2730" as="targetPoint" />
          </mxGeometry>
        </mxCell>
        <mxCell id="-_GSLbsh_vdFSHuwJChW-303" value="" style="endArrow=classic;startArrow=classic;html=1;rounded=0;exitX=0;exitY=0.5;exitDx=0;exitDy=0;entryX=0.5;entryY=1;entryDx=0;entryDy=0;" edge="1" parent="1" source="-_GSLbsh_vdFSHuwJChW-285" target="-_GSLbsh_vdFSHuwJChW-283">
          <mxGeometry width="50" height="50" relative="1" as="geometry">
            <mxPoint x="490" y="2290" as="sourcePoint" />
            <mxPoint x="610" y="2290" as="targetPoint" />
          </mxGeometry>
        </mxCell>
        <mxCell id="-_GSLbsh_vdFSHuwJChW-304" value="" style="endArrow=classic;startArrow=classic;html=1;rounded=0;exitX=0.5;exitY=0;exitDx=0;exitDy=0;entryX=1;entryY=0.5;entryDx=0;entryDy=0;" edge="1" parent="1" source="-_GSLbsh_vdFSHuwJChW-284" target="-_GSLbsh_vdFSHuwJChW-283">
          <mxGeometry width="50" height="50" relative="1" as="geometry">
            <mxPoint x="730" y="2610" as="sourcePoint" />
            <mxPoint x="630" y="2330" as="targetPoint" />
          </mxGeometry>
        </mxCell>
        <mxCell id="-_GSLbsh_vdFSHuwJChW-305" value="" style="endArrow=classic;startArrow=classic;html=1;rounded=0;exitX=0.5;exitY=0;exitDx=0;exitDy=0;entryX=0.5;entryY=1;entryDx=0;entryDy=0;" edge="1" parent="1" source="-_GSLbsh_vdFSHuwJChW-286" target="-_GSLbsh_vdFSHuwJChW-283">
          <mxGeometry width="50" height="50" relative="1" as="geometry">
            <mxPoint x="730" y="2610" as="sourcePoint" />
            <mxPoint x="630" y="2330" as="targetPoint" />
          </mxGeometry>
        </mxCell>
        <mxCell id="-_GSLbsh_vdFSHuwJChW-306" value="" style="endArrow=classic;startArrow=classic;html=1;rounded=0;exitX=0.5;exitY=0;exitDx=0;exitDy=0;entryX=0.5;entryY=1;entryDx=0;entryDy=0;" edge="1" parent="1" source="-_GSLbsh_vdFSHuwJChW-287" target="-_GSLbsh_vdFSHuwJChW-283">
          <mxGeometry width="50" height="50" relative="1" as="geometry">
            <mxPoint x="630" y="2730" as="sourcePoint" />
            <mxPoint x="630" y="2330" as="targetPoint" />
          </mxGeometry>
        </mxCell>
        <mxCell id="-_GSLbsh_vdFSHuwJChW-307" value="" style="endArrow=classic;startArrow=classic;html=1;rounded=0;exitX=1;exitY=0.5;exitDx=0;exitDy=0;entryX=0.5;entryY=1;entryDx=0;entryDy=0;" edge="1" parent="1" source="-_GSLbsh_vdFSHuwJChW-288" target="-_GSLbsh_vdFSHuwJChW-283">
          <mxGeometry width="50" height="50" relative="1" as="geometry">
            <mxPoint x="470" y="2730" as="sourcePoint" />
            <mxPoint x="630" y="2330" as="targetPoint" />
          </mxGeometry>
        </mxCell>
        <mxCell id="-_GSLbsh_vdFSHuwJChW-308" value="" style="endArrow=classic;startArrow=classic;html=1;rounded=0;entryX=0.5;entryY=1;entryDx=0;entryDy=0;" edge="1" parent="1" source="-_GSLbsh_vdFSHuwJChW-285" target="-_GSLbsh_vdFSHuwJChW-284">
          <mxGeometry width="50" height="50" relative="1" as="geometry">
            <mxPoint x="730" y="2610" as="sourcePoint" />
            <mxPoint x="630" y="2330" as="targetPoint" />
          </mxGeometry>
        </mxCell>
        <mxCell id="-_GSLbsh_vdFSHuwJChW-309" value="" style="endArrow=classic;startArrow=classic;html=1;rounded=0;entryX=0;entryY=0.5;entryDx=0;entryDy=0;exitX=0.5;exitY=0;exitDx=0;exitDy=0;" edge="1" parent="1" source="-_GSLbsh_vdFSHuwJChW-286" target="-_GSLbsh_vdFSHuwJChW-284">
          <mxGeometry width="50" height="50" relative="1" as="geometry">
            <mxPoint x="750" y="2570" as="sourcePoint" />
            <mxPoint x="750" y="2490" as="targetPoint" />
          </mxGeometry>
        </mxCell>
        <mxCell id="-_GSLbsh_vdFSHuwJChW-310" value="" style="endArrow=classic;startArrow=classic;html=1;rounded=0;entryX=0;entryY=0.5;entryDx=0;entryDy=0;exitX=0.5;exitY=0;exitDx=0;exitDy=0;" edge="1" parent="1" source="-_GSLbsh_vdFSHuwJChW-287" target="-_GSLbsh_vdFSHuwJChW-284">
          <mxGeometry width="50" height="50" relative="1" as="geometry">
            <mxPoint x="630" y="2730" as="sourcePoint" />
            <mxPoint x="730" y="2450" as="targetPoint" />
          </mxGeometry>
        </mxCell>
        <mxCell id="-_GSLbsh_vdFSHuwJChW-311" value="" style="endArrow=classic;startArrow=classic;html=1;rounded=0;entryX=0;entryY=0.5;entryDx=0;entryDy=0;exitX=1;exitY=0.5;exitDx=0;exitDy=0;" edge="1" parent="1" source="-_GSLbsh_vdFSHuwJChW-288" target="-_GSLbsh_vdFSHuwJChW-284">
          <mxGeometry width="50" height="50" relative="1" as="geometry">
            <mxPoint x="470" y="2730" as="sourcePoint" />
            <mxPoint x="730" y="2450" as="targetPoint" />
          </mxGeometry>
        </mxCell>
        <mxCell id="-_GSLbsh_vdFSHuwJChW-312" value="" style="endArrow=classic;startArrow=classic;html=1;rounded=0;entryX=1;entryY=0.5;entryDx=0;entryDy=0;exitX=0.5;exitY=1;exitDx=0;exitDy=0;" edge="1" parent="1" source="-_GSLbsh_vdFSHuwJChW-285" target="-_GSLbsh_vdFSHuwJChW-286">
          <mxGeometry width="50" height="50" relative="1" as="geometry">
            <mxPoint x="750" y="2570" as="sourcePoint" />
            <mxPoint x="750" y="2490" as="targetPoint" />
          </mxGeometry>
        </mxCell>
        <mxCell id="-_GSLbsh_vdFSHuwJChW-313" value="" style="endArrow=classic;startArrow=classic;html=1;rounded=0;entryX=0.5;entryY=0;entryDx=0;entryDy=0;exitX=0;exitY=0.5;exitDx=0;exitDy=0;" edge="1" parent="1" source="-_GSLbsh_vdFSHuwJChW-285" target="-_GSLbsh_vdFSHuwJChW-287">
          <mxGeometry width="50" height="50" relative="1" as="geometry">
            <mxPoint x="750" y="2650" as="sourcePoint" />
            <mxPoint x="650" y="2770" as="targetPoint" />
          </mxGeometry>
        </mxCell>
        <mxCell id="-_GSLbsh_vdFSHuwJChW-314" value="" style="endArrow=classic;startArrow=classic;html=1;rounded=0;entryX=1;entryY=0.5;entryDx=0;entryDy=0;exitX=0;exitY=0.5;exitDx=0;exitDy=0;" edge="1" parent="1" source="-_GSLbsh_vdFSHuwJChW-285" target="-_GSLbsh_vdFSHuwJChW-288">
          <mxGeometry width="50" height="50" relative="1" as="geometry">
            <mxPoint x="750" y="2650" as="sourcePoint" />
            <mxPoint x="650" y="2770" as="targetPoint" />
          </mxGeometry>
        </mxCell>
        <mxCell id="-_GSLbsh_vdFSHuwJChW-315" value="" style="endArrow=classic;startArrow=classic;html=1;rounded=0;entryX=1;entryY=0.5;entryDx=0;entryDy=0;exitX=0.5;exitY=0;exitDx=0;exitDy=0;" edge="1" parent="1" source="-_GSLbsh_vdFSHuwJChW-286" target="-_GSLbsh_vdFSHuwJChW-288">
          <mxGeometry width="50" height="50" relative="1" as="geometry">
            <mxPoint x="730" y="2610" as="sourcePoint" />
            <mxPoint x="370" y="2610" as="targetPoint" />
          </mxGeometry>
        </mxCell>
        <mxCell id="-_GSLbsh_vdFSHuwJChW-316" value="" style="endArrow=classic;startArrow=classic;html=1;rounded=0;entryX=1;entryY=0.5;entryDx=0;entryDy=0;exitX=0;exitY=0.5;exitDx=0;exitDy=0;" edge="1" parent="1" source="-_GSLbsh_vdFSHuwJChW-286" target="-_GSLbsh_vdFSHuwJChW-287">
          <mxGeometry width="50" height="50" relative="1" as="geometry">
            <mxPoint x="630" y="2730" as="sourcePoint" />
            <mxPoint x="350" y="2650" as="targetPoint" />
          </mxGeometry>
        </mxCell>
        <mxCell id="-_GSLbsh_vdFSHuwJChW-317" value="" style="endArrow=classic;startArrow=classic;html=1;rounded=0;entryX=0.5;entryY=1;entryDx=0;entryDy=0;exitX=0;exitY=0.5;exitDx=0;exitDy=0;" edge="1" parent="1" source="-_GSLbsh_vdFSHuwJChW-287" target="-_GSLbsh_vdFSHuwJChW-288">
          <mxGeometry width="50" height="50" relative="1" as="geometry">
            <mxPoint x="610" y="2770" as="sourcePoint" />
            <mxPoint x="490" y="2770" as="targetPoint" />
          </mxGeometry>
        </mxCell>
        <mxCell id="-_GSLbsh_vdFSHuwJChW-318" value="" style="curved=1;endArrow=classic;html=1;rounded=0;exitX=0;exitY=0.5;exitDx=0;exitDy=0;entryX=0;entryY=0.5;entryDx=0;entryDy=0;" edge="1" parent="1" source="-_GSLbsh_vdFSHuwJChW-260" target="-_GSLbsh_vdFSHuwJChW-251">
          <mxGeometry width="50" height="50" relative="1" as="geometry">
            <mxPoint x="-280" y="2520" as="sourcePoint" />
            <mxPoint x="-230" y="2470" as="targetPoint" />
            <Array as="points">
              <mxPoint x="-580" y="2520" />
            </Array>
          </mxGeometry>
        </mxCell>
        <mxCell id="-_GSLbsh_vdFSHuwJChW-319" value="" style="curved=1;endArrow=classic;html=1;rounded=0;entryX=0;entryY=0.5;entryDx=0;entryDy=0;exitX=0.5;exitY=1;exitDx=0;exitDy=0;" edge="1" parent="1" source="-_GSLbsh_vdFSHuwJChW-246" target="-_GSLbsh_vdFSHuwJChW-249">
          <mxGeometry width="50" height="50" relative="1" as="geometry">
            <mxPoint x="-280" y="2520" as="sourcePoint" />
            <mxPoint x="-230" y="2470" as="targetPoint" />
            <Array as="points">
              <mxPoint x="-620" y="2410" />
            </Array>
          </mxGeometry>
        </mxCell>
        <mxCell id="-_GSLbsh_vdFSHuwJChW-330" value="Send data[0] to other Cards" style="edgeLabel;html=1;align=center;verticalAlign=middle;resizable=0;points=[];" vertex="1" connectable="0" parent="-_GSLbsh_vdFSHuwJChW-319">
          <mxGeometry x="0.7072" y="4" relative="1" as="geometry">
            <mxPoint y="-1" as="offset" />
          </mxGeometry>
        </mxCell>
        <mxCell id="-_GSLbsh_vdFSHuwJChW-322" value="" style="endArrow=classic;html=1;rounded=0;exitX=0.5;exitY=1;exitDx=0;exitDy=0;entryX=1;entryY=0.5;entryDx=0;entryDy=0;" edge="1" parent="1" source="-_GSLbsh_vdFSHuwJChW-249" target="-_GSLbsh_vdFSHuwJChW-252">
          <mxGeometry width="50" height="50" relative="1" as="geometry">
            <mxPoint x="-150" y="2500" as="sourcePoint" />
            <mxPoint x="-390" y="2640" as="targetPoint" />
          </mxGeometry>
        </mxCell>
        <mxCell id="-_GSLbsh_vdFSHuwJChW-323" value="" style="endArrow=classic;html=1;rounded=0;exitX=0.5;exitY=1;exitDx=0;exitDy=0;entryX=1;entryY=0.5;entryDx=0;entryDy=0;" edge="1" parent="1" source="-_GSLbsh_vdFSHuwJChW-249" target="-_GSLbsh_vdFSHuwJChW-253">
          <mxGeometry width="50" height="50" relative="1" as="geometry">
            <mxPoint x="-150" y="2500" as="sourcePoint" />
            <mxPoint x="-390" y="2660" as="targetPoint" />
          </mxGeometry>
        </mxCell>
        <mxCell id="-_GSLbsh_vdFSHuwJChW-324" value="" style="endArrow=classic;html=1;rounded=0;exitX=0.5;exitY=1;exitDx=0;exitDy=0;entryX=1;entryY=0.5;entryDx=0;entryDy=0;" edge="1" parent="1" source="-_GSLbsh_vdFSHuwJChW-249" target="-_GSLbsh_vdFSHuwJChW-254">
          <mxGeometry width="50" height="50" relative="1" as="geometry">
            <mxPoint x="-150" y="2500" as="sourcePoint" />
            <mxPoint x="-390" y="2680" as="targetPoint" />
          </mxGeometry>
        </mxCell>
        <mxCell id="-_GSLbsh_vdFSHuwJChW-325" value="" style="endArrow=classic;html=1;rounded=0;exitX=0.5;exitY=1;exitDx=0;exitDy=0;entryX=1;entryY=0.5;entryDx=0;entryDy=0;" edge="1" parent="1" source="-_GSLbsh_vdFSHuwJChW-249" target="-_GSLbsh_vdFSHuwJChW-255">
          <mxGeometry width="50" height="50" relative="1" as="geometry">
            <mxPoint x="-150" y="2500" as="sourcePoint" />
            <mxPoint x="-390" y="2700" as="targetPoint" />
          </mxGeometry>
        </mxCell>
        <mxCell id="-_GSLbsh_vdFSHuwJChW-326" value="" style="endArrow=classic;html=1;rounded=0;exitX=0.5;exitY=1;exitDx=0;exitDy=0;entryX=1;entryY=0.5;entryDx=0;entryDy=0;" edge="1" parent="1" source="-_GSLbsh_vdFSHuwJChW-249" target="-_GSLbsh_vdFSHuwJChW-256">
          <mxGeometry width="50" height="50" relative="1" as="geometry">
            <mxPoint x="-150" y="2500" as="sourcePoint" />
            <mxPoint x="-390" y="2720" as="targetPoint" />
          </mxGeometry>
        </mxCell>
        <mxCell id="-_GSLbsh_vdFSHuwJChW-327" value="" style="endArrow=classic;html=1;rounded=0;exitX=0.5;exitY=1;exitDx=0;exitDy=0;entryX=1;entryY=0.5;entryDx=0;entryDy=0;" edge="1" parent="1" source="-_GSLbsh_vdFSHuwJChW-249" target="-_GSLbsh_vdFSHuwJChW-257">
          <mxGeometry width="50" height="50" relative="1" as="geometry">
            <mxPoint x="-150" y="2500" as="sourcePoint" />
            <mxPoint x="-390" y="2740" as="targetPoint" />
          </mxGeometry>
        </mxCell>
        <mxCell id="-_GSLbsh_vdFSHuwJChW-328" value="" style="endArrow=classic;html=1;rounded=0;exitX=0.5;exitY=1;exitDx=0;exitDy=0;entryX=1;entryY=0.5;entryDx=0;entryDy=0;" edge="1" parent="1" source="-_GSLbsh_vdFSHuwJChW-249" target="-_GSLbsh_vdFSHuwJChW-258">
          <mxGeometry width="50" height="50" relative="1" as="geometry">
            <mxPoint x="-150" y="2500" as="sourcePoint" />
            <mxPoint x="-390" y="2760" as="targetPoint" />
          </mxGeometry>
        </mxCell>
      </root>
    </mxGraphModel>
  </diagram>
</mxfile>
